<svg width="32" height="32" viewBox="0 0 32 32" fill="none" xmlns="http://www.w3.org/2000/svg">
    <path d="M28.5166 10.0242C28.4008 9.85682 28.2461 9.72 28.0658 9.62548C27.8855 9.53095 27.685 9.48154 27.4815 9.48147H10.2712L8.81799 5.99332C8.62745 5.53397 8.3048 5.14154 7.89095 4.86579C7.4771 4.59005 6.99069 4.44339 6.49339 4.44443H3.55554V6.96295H6.49339L12.4673 21.2996C12.563 21.529 12.7244 21.7249 12.9313 21.8627C13.1381 22.0006 13.3811 22.0741 13.6296 22.0741H23.7037C24.2288 22.0741 24.6985 21.7479 24.8836 21.2581L28.6614 11.184C28.7328 10.9934 28.7569 10.7883 28.7317 10.5863C28.7065 10.3843 28.6327 10.1914 28.5166 10.0242Z" fill="#CCCCCC"/>
    <path d="M14.2592 27.1111C15.3024 27.1111 16.1481 26.2654 16.1481 25.2222C16.1481 24.179 15.3024 23.3333 14.2592 23.3333C13.216 23.3333 12.3704 24.179 12.3704 25.2222C12.3704 26.2654 13.216 27.1111 14.2592 27.1111Z" fill="#CCCCCC"/>
    <path d="M23.0741 27.1111C24.1173 27.1111 24.9629 26.2654 24.9629 25.2222C24.9629 24.179 24.1173 23.3333 23.0741 23.3333C22.0309 23.3333 21.1852 24.179 21.1852 25.2222C21.1852 26.2654 22.0309 27.1111 23.0741 27.1111Z" fill="#CCCCCC"/>
</svg>
