<svg width="42" height="42" viewBox="0 0 42 42" fill="none" xmlns="http://www.w3.org/2000/svg">
    <path d="M40.32 20.0935C40.2837 8.9891 31.2684 0 20.162 0C9.05155 0 0.0382771 8.9891 0.00201444 20.0935L0 20.0411V20.2668L0.00201444 20.2204C0.0362625 31.3269 9.04954 40.32 20.162 40.32C31.2705 40.32 40.2837 31.3309 40.32 20.2265L40.322 20.2789V20.1701V20.16V20.0411L40.32 20.0935ZM14.6682 29.3264C9.61362 29.3264 5.50587 25.2186 5.50587 20.162C5.50587 15.1054 9.61362 10.9976 14.6682 10.9976C17.1462 10.9976 19.2172 11.9062 20.8047 13.391L18.1958 15.9193C17.541 15.2968 16.3847 14.5635 14.6682 14.5635C11.6363 14.5635 9.16235 17.0837 9.16235 20.1741C9.16235 23.2625 11.6383 25.7827 14.6682 25.7827C18.1776 25.7827 19.471 23.3531 19.7087 21.9147H14.6642V18.4939H23.2363C23.3692 19.0701 23.468 19.61 23.468 20.3715C23.468 25.6034 19.9585 29.3264 14.6682 29.3264ZM35.7368 21.0766H32.0723V24.7412H29.3244V21.0766H25.6578V18.3287H29.3244V14.6622H32.0723V18.3287H35.7368V21.0766Z" fill="#FC3637"/>
</svg>
