<svg width="16" height="16" viewBox="0 0 16 16" fill="none" xmlns="http://www.w3.org/2000/svg">
    <path d="M14.4219 4.43125C14.2124 3.94631 13.9104 3.50686 13.5328 3.1375C13.1549 2.76704 12.7093 2.47264 12.2203 2.27032C11.7132 2.05968 11.1694 1.95186 10.6203 1.95313C9.85 1.95313 9.09844 2.16407 8.44531 2.5625C8.28906 2.65781 8.14062 2.7625 8 2.87656C7.85938 2.7625 7.71094 2.65781 7.55469 2.5625C6.90156 2.16407 6.15 1.95313 5.37969 1.95313C4.825 1.95313 4.2875 2.05938 3.77969 2.27032C3.28906 2.47344 2.84687 2.76563 2.46719 3.1375C2.08906 3.50644 1.787 3.946 1.57812 4.43125C1.36094 4.93594 1.25 5.47187 1.25 6.02343C1.25 6.54375 1.35625 7.08593 1.56719 7.63749C1.74375 8.09843 1.99687 8.57656 2.32031 9.05937C2.83281 9.82343 3.5375 10.6203 4.4125 11.4281C5.8625 12.7672 7.29844 13.6922 7.35938 13.7297L7.72969 13.9672C7.89375 14.0719 8.10469 14.0719 8.26875 13.9672L8.63906 13.7297C8.7 13.6906 10.1344 12.7672 11.5859 11.4281C12.4609 10.6203 13.1656 9.82343 13.6781 9.05937C14.0016 8.57656 14.2562 8.09843 14.4312 7.63749C14.6422 7.08593 14.7484 6.54375 14.7484 6.02343C14.75 5.47187 14.6391 4.93594 14.4219 4.43125Z" fill="#FC6828"/>
</svg>
