<svg width="16" height="16" viewBox="0 0 16 16" fill="none" xmlns="http://www.w3.org/2000/svg">
    <path d="M8.63906 13.7297C8.7 13.6906 10.1344 12.7672 11.5859 11.4281C12.4609 10.6203 13.1656 9.82343 13.6781 9.05937C14.0016 8.57656 14.2562 8.09843 14.4312 7.63749C14.6422 7.08593 14.7484 6.54375 14.7484 6.02343C14.75 5.47187 14.6391 4.93594 14.4219 4.43125C14.2124 3.94631 13.9104 3.50686 13.5328 3.1375L8.63906 13.7297ZM8.63906 13.7297L8.26875 13.9672M8.63906 13.7297L8.26875 13.9672M8.26875 13.9672C8.10469 14.0719 7.89375 14.0719 7.72969 13.9672H8.26875ZM13.9629 4.62949C14.1531 5.07175 14.2498 5.53978 14.2484 6.02202V6.02343C14.2484 6.47529 14.1562 6.957 13.9642 7.45889L13.9638 7.46002C13.8048 7.87884 13.5694 8.32328 13.2627 8.78109C12.7775 9.50448 12.1011 10.272 11.2468 11.0607C9.82656 12.3709 8.42027 13.276 8.36923 13.3087L8.36913 13.3088L7.99988 13.5456L7.99987 13.5456L7.99922 13.5457L7.99865 13.5457L7.99857 13.5456L7.99856 13.5456L7.6293 13.3088L7.62935 13.3087L7.62143 13.3038C7.62168 13.304 7.62154 13.3039 7.62099 13.3036C7.61929 13.3025 7.61363 13.2989 7.60299 13.2921C7.59016 13.2838 7.57217 13.2721 7.54933 13.2571C7.50367 13.2271 7.43918 13.1842 7.35852 13.1292C7.19718 13.0194 6.97172 12.862 6.70326 12.6643C6.16559 12.2685 5.4594 11.7143 4.75172 11.0608L4.75167 11.0607C3.89733 10.272 3.22097 9.50448 2.73572 8.78109L13.9629 4.62949ZM13.1832 3.49495C13.5142 3.8187 13.7789 4.20387 13.9626 4.6289L2.0374 4.6289C2.22041 4.20374 2.48506 3.81863 2.81637 3.49538L2.81705 3.49471C3.15111 3.16752 3.53948 2.91092 3.97095 2.73229L3.97149 2.73206C4.41771 2.54671 4.88995 2.45313 5.37969 2.45313C6.05855 2.45313 6.71995 2.63897 7.29429 2.98935L7.29431 2.98935C7.43173 3.07318 7.56191 3.16502 7.68503 3.26489L8 3.52036L8.31497 3.26489C8.43809 3.16502 8.56827 3.07318 8.70569 2.98935L8.70571 2.98935C9.28005 2.63897 9.94145 2.45313 10.6203 2.45313L10.6215 2.45313C11.1043 2.45202 11.5826 2.54683 12.0285 2.73206L12.0292 2.73233C12.459 2.91017 12.8506 3.16894 13.1828 3.49456L13.1832 3.49495ZM1.75 6.02343C1.75 5.54003 1.847 5.07135 2.03739 4.62893L2.73568 8.78103C2.42959 8.32411 2.19519 7.87917 2.0341 7.45864C1.84223 6.95683 1.75 6.47521 1.75 6.02343Z" stroke="#040415"/>
</svg>
