<svg width="32" height="32" viewBox="0 0 32 32" fill="none" xmlns="http://www.w3.org/2000/svg">
    <path d="M28.2453 8.88532C27.8527 7.97633 27.2867 7.15261 26.5788 6.46028C25.8704 5.76588 25.0352 5.21405 24.1186 4.8348C23.1682 4.43998 22.1487 4.23789 21.1195 4.24025C19.6756 4.24025 18.2669 4.63564 17.0426 5.38248C16.7498 5.56114 16.4715 5.75737 16.2079 5.97117C15.9443 5.75737 15.6661 5.56114 15.3732 5.38248C14.149 4.63564 12.7402 4.24025 11.2963 4.24025C10.2566 4.24025 9.24912 4.43941 8.29726 4.8348C7.37762 5.21554 6.54877 5.76323 5.83707 6.46028C5.1283 7.15183 4.5621 7.97574 4.17059 8.88532C3.76349 9.83132 3.55554 10.8359 3.55554 11.8698C3.55554 12.845 3.7547 13.8613 4.15009 14.8952C4.48104 15.7592 4.95551 16.6554 5.56177 17.5604C6.52241 18.9926 7.8433 20.4863 9.48342 22.0004C12.2013 24.5104 14.8929 26.2443 15.0071 26.3146L15.7013 26.7597C16.0088 26.956 16.4042 26.956 16.7117 26.7597L17.4058 26.3146C17.52 26.2413 20.2087 24.5104 22.9295 22.0004C24.5697 20.4863 25.8905 18.9926 26.8512 17.5604C27.4574 16.6554 27.9348 15.7592 28.2629 14.8952C28.6582 13.8613 28.8574 12.845 28.8574 11.8698C28.8603 10.8359 28.6524 9.83132 28.2453 8.88532Z" fill="#CCCCCC"/>
</svg>
