<svg width="42" height="42" viewBox="0 0 42 42" fill="none" xmlns="http://www.w3.org/2000/svg">
    <circle cx="21.16" cy="21.16" r="20.16" fill="#040415"/>
    <path d="M29.4766 16.7207C28.7438 16.9726 28.1332 17.5575 27.6446 18.4754C27.1561 19.3932 26.9118 20.302 26.9118 21.2019C26.9118 22.3177 27.191 23.3525 27.7493 24.3063C28.3076 25.2602 29.0579 25.8631 30 26.115C29.7208 27.0869 29.2585 28.0857 28.6129 29.1115C27.9674 30.1373 27.3131 30.9022 26.6501 31.4061C26.0918 31.802 25.3939 32 24.5565 32C23.9982 32 23.3526 31.856 22.6198 31.5681C21.9917 31.2441 21.4509 31.0822 20.9972 31.0822C20.6483 31.0822 19.9504 31.2981 18.9036 31.73C18.2755 31.91 17.8219 32 17.5427 32C16.7052 32 15.8503 31.6401 14.978 30.9202C13.7218 29.6964 12.7447 28.2387 12.0468 26.5469C11.3489 24.8552 11 23.0915 11 21.2559C11 19.3482 11.5321 17.6655 12.5964 16.2077C13.6607 14.75 15.0129 14.0211 16.6529 14.0211C17.5601 14.0211 18.3976 14.2191 19.1653 14.615C19.7585 15.011 20.3517 15.2089 20.9449 15.2089C21.5032 15.2089 22.0441 15.1009 22.5675 14.885C23.9284 14.3091 24.8356 14.0211 25.2893 14.0211C26.5106 14.0211 27.5748 14.4351 28.4821 15.2629C28.9008 15.6948 29.2323 16.1808 29.4766 16.7207ZM20.3691 14.1831C20.3691 13.0313 20.8053 11.8975 21.6777 10.7817C22.55 9.80986 23.6143 9.21596 24.8705 9C24.8705 10.3678 24.4518 11.5736 23.6143 12.6174C22.6722 13.6612 21.5905 14.1831 20.3691 14.1831Z" fill="#F9FAFB"/>
</svg>
