<svg width="168" height="148" viewBox="0 0 168 148" fill="none" xmlns="http://www.w3.org/2000/svg">
    <g clip-path="url(#clip0_5_107)">
        <path d="M114.4 62.1L108.5 25.6C108 22.5 105.3 20.2 102.2 20.2H100.7L101.5 30.6C101.6 31.9 101.2 33.2 100.3 34.2C99.4 35.2 98.3 35.8 97 35.9C96.9 35.9 96.7 35.9 96.6 35.9C94.1 35.9 91.9 33.9 91.7 31.4L90.8 20.2H62.7L61.8 31.4C61.6 33.9 59.4 35.9 56.9 35.9C56.8 35.9 56.6 35.9 56.5 35.9C53.8 35.7 51.8 33.3 52 30.6L52.9 20.2H49.9C46.7 20.2 44 22.5 43.5 25.7L32.5 98.9C32.5 99 32.5 99 32.5 99.1C88.9 110 104.6 63.3 104.6 63.3C104.1 83.3 95.4 96.8 84.8 106C104.2 101.6 117.7 82.7 114.4 62.1Z" fill="white"/>
        <path d="M91.5 62.5H68.1C69.1 67 72.7 69.7 78 69.7C80.4 69.7 82.3 69.2 84 68.3C85.7 67.3 87.9 67.7 89.2 69.2C90.9 71.1 90.5 74.1 88.4 75.4C85.5 77.2 82 78.1 77.8 78.1C65.9 78.1 58.2 70.3 58.2 59.6C58.2 48.8 66.1 41.1 76.6 41.1C86.7 41.1 94.5 48.2 94.5 59.8C94.3 61.2 93 62.5 91.5 62.5ZM68 56.4H85C84.3 51.9 81 48.9 76.6 48.9C71.9 48.9 68.7 51.8 68 56.4Z" fill="#FC6828"/>
        <path d="M99 30.9L97.8 16.1C97.2 7.40001 90.1 0.800006 81.5 0.700006L72.5 0.600006C72.4 0.600006 72.4 0.600006 72.3 0.600006C63.7 0.600006 56.4 7.30001 55.7 15.9L54.4 30.9C54.3 32.3 55.3 33.4 56.6 33.6C56.7 33.6 56.7 33.6 56.8 33.6C58.1 33.6 59.1 32.6 59.2 31.3L60.5 16.3C61 10.2 66.1 5.50001 72.2 5.50001C72.3 5.50001 72.3 5.50001 72.4 5.50001L81.4 5.60001C87.5 5.70001 92.5 10.4 93 16.4L94.2 31.2C94.3 32.5 95.4 33.5 96.6 33.5C96.7 33.5 96.7 33.5 96.8 33.5C98.1 33.4 99.1 32.2 99 30.9Z" fill="white"/>
        <path d="M23.3315 140.4V118.125H34.55V119.934H25.3835V128.331H34.226V130.14H25.3835V138.591H34.55V140.4H23.3315ZM38.7403 133.421V131.733H47.4343V133.421H38.7403ZM57.9259 140.832C56.7739 140.832 55.7614 140.661 54.8884 140.319C54.0154 139.968 53.2729 139.55 52.6609 139.064C52.0579 138.569 51.5719 138.087 51.2029 137.619C50.8429 137.151 50.5909 136.8 50.4469 136.566L51.6214 135.054C51.7834 135.306 52.0264 135.648 52.3504 136.08C52.6834 136.503 53.1064 136.935 53.6194 137.376C54.1324 137.808 54.7489 138.177 55.4689 138.483C56.1889 138.78 57.0214 138.929 57.9664 138.929C58.8664 138.929 59.6854 138.767 60.4234 138.443C61.1704 138.119 61.7689 137.637 62.2189 136.998C62.6689 136.359 62.8939 135.567 62.8939 134.622C62.8939 133.83 62.7364 133.16 62.4214 132.611C62.1154 132.053 61.6879 131.58 61.1389 131.193C60.5899 130.806 59.9599 130.464 59.2489 130.167C58.5469 129.861 57.8089 129.564 57.0349 129.276C56.4949 129.069 55.9279 128.826 55.3339 128.547C54.7489 128.259 54.1999 127.904 53.6869 127.481C53.1739 127.049 52.7554 126.527 52.4314 125.915C52.1164 125.303 51.9589 124.565 51.9589 123.701C51.9589 122.891 52.1119 122.126 52.4179 121.406C52.7239 120.686 53.1514 120.051 53.7004 119.502C54.2494 118.944 54.9064 118.508 55.6714 118.193C56.4364 117.878 57.2824 117.72 58.2094 117.72C59.1004 117.72 59.9194 117.869 60.6664 118.166C61.4134 118.454 62.0659 118.823 62.6239 119.273C63.1909 119.714 63.6274 120.173 63.9334 120.65L62.8804 122.067C62.6284 121.653 62.2774 121.257 61.8274 120.879C61.3774 120.501 60.8464 120.195 60.2344 119.961C59.6314 119.718 58.9609 119.597 58.2229 119.597C57.3049 119.597 56.5219 119.795 55.8739 120.191C55.2349 120.587 54.7489 121.1 54.4159 121.73C54.0829 122.351 53.9164 123.008 53.9164 123.701C53.9164 124.331 54.0469 124.866 54.3079 125.307C54.5689 125.748 54.9154 126.122 55.3474 126.428C55.7794 126.725 56.2519 126.981 56.7649 127.197C57.2869 127.413 57.8089 127.616 58.3309 127.805C59.2039 128.129 60.0409 128.475 60.8419 128.844C61.6519 129.204 62.3719 129.636 63.0019 130.14C63.6319 130.635 64.1314 131.243 64.5004 131.963C64.8694 132.674 65.0539 133.538 65.0539 134.555C65.0539 135.887 64.7389 137.021 64.1089 137.957C63.4789 138.893 62.6284 139.608 61.5574 140.103C60.4864 140.589 59.2759 140.832 57.9259 140.832ZM69.7409 140.4V118.125H71.7929V128.331H83.9564V118.125H85.9949V140.4H83.9564V130.14H71.7929V140.4H69.7409ZM102.049 140.832C100.492 140.832 99.0339 140.535 97.6749 139.941C96.3159 139.347 95.1234 138.524 94.0974 137.471C93.0714 136.409 92.2659 135.18 91.6809 133.785C91.1049 132.381 90.8169 130.878 90.8169 129.276C90.8169 127.665 91.1049 126.162 91.6809 124.767C92.2659 123.372 93.0714 122.148 94.0974 121.095C95.1234 120.033 96.3159 119.205 97.6749 118.611C99.0339 118.017 100.492 117.72 102.049 117.72C103.606 117.72 105.064 118.017 106.423 118.611C107.782 119.205 108.974 120.033 110 121.095C111.026 122.148 111.827 123.372 112.403 124.767C112.988 126.162 113.281 127.665 113.281 129.276C113.281 130.878 112.988 132.381 112.403 133.785C111.827 135.18 111.026 136.409 110 137.471C108.974 138.524 107.782 139.347 106.423 139.941C105.064 140.535 103.606 140.832 102.049 140.832ZM102.049 138.848C103.318 138.848 104.497 138.605 105.586 138.119C106.675 137.633 107.629 136.953 108.448 136.08C109.276 135.207 109.919 134.19 110.378 133.029C110.837 131.868 111.067 130.617 111.067 129.276C111.067 127.935 110.837 126.684 110.378 125.523C109.919 124.362 109.276 123.345 108.448 122.472C107.629 121.599 106.675 120.92 105.586 120.434C104.497 119.948 103.318 119.705 102.049 119.705C100.78 119.705 99.5964 119.948 98.4984 120.434C97.4094 120.92 96.4554 121.599 95.6364 122.472C94.8174 123.345 94.1739 124.362 93.7059 125.523C93.2469 126.684 93.0174 127.935 93.0174 129.276C93.0174 130.617 93.2469 131.868 93.7059 133.029C94.1739 134.19 94.8174 135.207 95.6364 136.08C96.4554 136.953 97.4094 137.633 98.4984 138.119C99.5964 138.605 100.78 138.848 102.049 138.848ZM118.1 140.4V118.125H123.878C125.336 118.125 126.596 118.377 127.658 118.881C128.72 119.385 129.539 120.105 130.115 121.041C130.7 121.977 130.993 123.102 130.993 124.416C130.993 125.721 130.7 126.869 130.115 127.859C129.539 128.84 128.72 129.605 127.658 130.154C126.596 130.694 125.336 130.964 123.878 130.964H120.152V140.4H118.1ZM120.152 129.236H123.392C124.508 129.236 125.476 129.042 126.295 128.655C127.123 128.268 127.762 127.719 128.212 127.008C128.662 126.288 128.887 125.442 128.887 124.47C128.887 123.48 128.662 122.639 128.212 121.946C127.762 121.244 127.123 120.713 126.295 120.353C125.476 119.984 124.508 119.799 123.392 119.799H120.152V129.236Z" fill="white"/>
    </g>
    <defs>
        <clipPath id="clip0_5_107">
            <rect width="168" height="146.8" fill="white" transform="translate(0 0.600006)"/>
        </clipPath>
    </defs>
</svg>
